<svg width="20" height="20" viewBox="0 0 20 20" fill="none" xmlns="http://www.w3.org/2000/svg">
<path d="M16.6333 7.46675C16.075 6.85008 15.2333 6.49175 14.0666 6.36675V5.73341C14.0666 4.59175 13.5833 3.49175 12.7333 2.72508C11.875 1.94175 10.7583 1.57508 9.59995 1.68341C7.60828 1.87508 5.93328 3.80008 5.93328 5.88341V6.36675C4.76662 6.49175 3.92495 6.85008 3.36662 7.46675C2.55828 8.36675 2.58328 9.56675 2.67495 10.4001L3.25828 15.0417C3.43328 16.6667 4.09162 18.3334 7.67495 18.3334H12.325C15.9083 18.3334 16.5666 16.6667 16.7416 15.0501L17.325 10.3917C17.4166 9.56675 17.4333 8.36675 16.6333 7.46675ZM9.71662 2.84175C10.55 2.76675 11.3416 3.02508 11.9583 3.58341C12.5666 4.13341 12.9083 4.91675 12.9083 5.73341V6.31675H7.09162V5.88341C7.09162 4.40008 8.31662 2.97508 9.71662 2.84175ZM7.01662 10.9584H7.00828C6.54995 10.9584 6.17495 10.5834 6.17495 10.1251C6.17495 9.66675 6.54995 9.29175 7.00828 9.29175C7.47495 9.29175 7.84995 9.66675 7.84995 10.1251C7.84995 10.5834 7.47495 10.9584 7.01662 10.9584ZM12.85 10.9584H12.8416C12.3833 10.9584 12.0083 10.5834 12.0083 10.1251C12.0083 9.66675 12.3833 9.29175 12.8416 9.29175C13.3083 9.29175 13.6833 9.66675 13.6833 10.1251C13.6833 10.5834 13.3083 10.9584 12.85 10.9584Z" fill="#ffffff"/>
</svg>
