<svg width="20" height="21" viewBox="0 0 20 21" fill="none" xmlns="http://www.w3.org/2000/svg">
<path d="M5.83333 10.5C2.5 10.5 2.5 11.9917 2.5 13.8333V14.6667C2.5 16.9667 2.5 18.8333 6.66667 18.8333H13.3333C16.6667 18.8333 17.5 16.9667 17.5 14.6667V13.8333C17.5 11.9917 17.5 10.5 14.1667 10.5C13.3333 10.5 13.1 10.675 12.6667 11L11.8167 11.9C10.8333 12.95 9.16667 12.95 8.175 11.9L7.33333 11C6.9 10.675 6.66667 10.5 5.83333 10.5Z" stroke="#F44363" stroke-width="1.5" stroke-miterlimit="10" stroke-linecap="round" stroke-linejoin="round"/>
<path d="M15.8332 10.5003V5.50033C15.8332 3.65866 15.8332 2.16699 12.4998 2.16699H7.49984C4.1665 2.16699 4.1665 3.65866 4.1665 5.50033V10.5003" stroke="#F44363" stroke-width="1.5" stroke-miterlimit="10" stroke-linecap="round" stroke-linejoin="round"/>
</svg>
