<svg width="20" height="20" viewBox="0 0 20 20" fill="none" xmlns="http://www.w3.org/2000/svg">
<path d="M12.9252 2.35828H7.07516C5.00016 2.35828 4.54183 3.39161 4.27516 4.65828L3.3335 9.16661H16.6668L15.7252 4.65828C15.4585 3.39161 15.0002 2.35828 12.9252 2.35828Z" stroke="white" stroke-width="1.25" stroke-linecap="round" stroke-linejoin="round"/>
<path d="M18.3253 16.5166C18.4169 17.4916 17.6336 18.3333 16.6336 18.3333H15.0669C14.1669 18.3333 14.0419 17.95 13.8836 17.475L13.7169 16.975C13.4836 16.2916 13.3336 15.8333 12.1336 15.8333H7.86693C6.66693 15.8333 6.49194 16.35 6.2836 16.975L6.11694 17.475C5.9586 17.95 5.8336 18.3333 4.9336 18.3333H3.36694C2.36694 18.3333 1.5836 17.4916 1.67527 16.5166L2.14194 11.4416C2.2586 10.1916 2.50027 9.16663 4.6836 9.16663H15.3169C17.5003 9.16663 17.7419 10.1916 17.8586 11.4416L18.3253 16.5166Z" stroke="white" stroke-width="1.25" stroke-linecap="round" stroke-linejoin="round"/>
<path d="M3.33333 6.66663H2.5" stroke="white" stroke-width="1.25" stroke-linecap="round" stroke-linejoin="round"/>
<path d="M17.4998 6.66663H16.6665" stroke="white" stroke-width="1.25" stroke-linecap="round" stroke-linejoin="round"/>
<path d="M10 2.5V4.16667" stroke="white" stroke-width="1.25" stroke-linecap="round" stroke-linejoin="round"/>
<path d="M8.75 4.16663H11.25" stroke="white" stroke-width="1.25" stroke-linecap="round" stroke-linejoin="round"/>
<path d="M5 12.5H7.5" stroke="white" stroke-width="1.25" stroke-linecap="round" stroke-linejoin="round"/>
<path d="M12.5 12.5H15" stroke="white" stroke-width="1.25" stroke-linecap="round" stroke-linejoin="round"/>
</svg>
