<svg width="20" height="20" viewBox="0 0 20 20" fill="none" xmlns="http://www.w3.org/2000/svg">
<path d="M18.125 6.66673C18.125 7.0084 17.8417 7.29173 17.5 7.29173H2.5C2.15833 7.29173 1.875 7.0084 1.875 6.66673C1.875 6.32507 2.15833 6.04173 2.5 6.04173H3.35L3.66667 4.5334C3.96667 3.07507 4.59167 1.7334 7.075 1.7334H12.925C15.4083 1.7334 16.0333 3.07507 16.3333 4.5334L16.65 6.04173H17.5C17.8417 6.04173 18.125 6.32507 18.125 6.66673Z" fill="#001B0D"/>
<path d="M18.4835 11.3837C18.3585 10.0087 17.9918 8.54199 15.3168 8.54199H4.68349C2.00849 8.54199 1.65015 10.0087 1.51682 11.3837L1.05015 16.4587C0.99182 17.092 1.20015 17.7253 1.63349 18.2003C2.07515 18.6837 2.70015 18.9587 3.36682 18.9587H4.93349C6.28349 18.9587 6.54182 18.1837 6.70849 17.6753L6.87515 17.1753C7.06682 16.6003 7.11682 16.4587 7.86682 16.4587H12.1335C12.8835 16.4587 12.9085 16.542 13.1252 17.1753L13.2918 17.6753C13.4585 18.1837 13.7168 18.9587 15.0668 18.9587H16.6335C17.2918 18.9587 17.9252 18.6837 18.3668 18.2003C18.8002 17.7253 19.0085 17.092 18.9502 16.4587L18.4835 11.3837ZM7.50015 13.1253H5.00015C4.65849 13.1253 4.37515 12.842 4.37515 12.5003C4.37515 12.1587 4.65849 11.8753 5.00015 11.8753H7.50015C7.84182 11.8753 8.12515 12.1587 8.12515 12.5003C8.12515 12.842 7.84182 13.1253 7.50015 13.1253ZM15.0002 13.1253H12.5002C12.1585 13.1253 11.8752 12.842 11.8752 12.5003C11.8752 12.1587 12.1585 11.8753 12.5002 11.8753H15.0002C15.3418 11.8753 15.6252 12.1587 15.6252 12.5003C15.6252 12.842 15.3418 13.1253 15.0002 13.1253Z" fill="#001B0D"/>
</svg>
