<svg width="20" height="20" viewBox="0 0 20 20" fill="none" xmlns="http://www.w3.org/2000/svg">
<path d="M8.33317 3.74996V15C8.33317 15.9 7.96649 16.725 7.38316 17.325L7.34984 17.3583C7.27484 17.4333 7.19151 17.5083 7.11651 17.5666C6.86651 17.7833 6.58316 17.95 6.29149 18.0666C6.19983 18.1083 6.10817 18.1416 6.0165 18.175C5.6915 18.2833 5.3415 18.3333 4.99984 18.3333C4.77484 18.3333 4.54985 18.3083 4.33318 18.2666C4.22485 18.2416 4.1165 18.2166 4.00817 18.1833C3.87484 18.1416 3.74984 18.1 3.62484 18.0416C3.62484 18.0333 3.62483 18.0333 3.6165 18.0416C3.38317 17.925 3.15818 17.7916 2.94984 17.6333L2.9415 17.625C2.83317 17.5416 2.73318 17.4583 2.64152 17.3583C2.54985 17.2583 2.45817 17.1583 2.3665 17.05C2.20817 16.8416 2.07484 16.6166 1.95818 16.3833C1.96651 16.375 1.96651 16.375 1.95818 16.375C1.95818 16.375 1.95817 16.3666 1.94983 16.3583C1.89983 16.2416 1.85816 16.1166 1.8165 15.9916C1.78316 15.8833 1.75816 15.775 1.73316 15.6666C1.69149 15.45 1.6665 15.225 1.6665 15V3.74996C1.6665 2.49996 2.49984 1.66663 3.74984 1.66663H6.24984C7.49984 1.66663 8.33317 2.49996 8.33317 3.74996Z" stroke="white" stroke-width="1.25" stroke-linecap="round" stroke-linejoin="round"/>
<path d="M18.3333 13.75V16.25C18.3333 17.5 17.5 18.3333 16.25 18.3333H5C5.34167 18.3333 5.69167 18.2833 6.01667 18.175C6.10833 18.1416 6.19999 18.1083 6.29166 18.0666C6.58332 17.95 6.86667 17.7833 7.11667 17.5666C7.19167 17.5083 7.27501 17.4333 7.35001 17.3583L7.38332 17.325L13.05 11.6666H16.25C17.5 11.6666 18.3333 12.5 18.3333 13.75Z" stroke="white" stroke-width="1.25" stroke-linecap="round" stroke-linejoin="round"/>
<path d="M4.00857 18.1832C3.50857 18.0332 3.03358 17.7582 2.64191 17.3582C2.24191 16.9666 1.96689 16.4916 1.81689 15.9916C2.14189 17.0332 2.9669 17.8582 4.00857 18.1832Z" stroke="white" stroke-width="1.25" stroke-linecap="round" stroke-linejoin="round"/>
<path d="M15.3083 9.40833L13.05 11.6667L7.3833 17.325C7.96663 16.725 8.33331 15.9 8.33331 15V6.95L10.5916 4.69167C11.475 3.80834 12.6583 3.80834 13.5416 4.69167L15.3083 6.45834C16.1916 7.34167 16.1916 8.525 15.3083 9.40833Z" stroke="white" stroke-width="1.25" stroke-linecap="round" stroke-linejoin="round"/>
<path d="M4.99984 15.8333C5.46007 15.8333 5.83317 15.4602 5.83317 15C5.83317 14.5397 5.46007 14.1666 4.99984 14.1666C4.5396 14.1666 4.1665 14.5397 4.1665 15C4.1665 15.4602 4.5396 15.8333 4.99984 15.8333Z" stroke="white" stroke-width="1.25" stroke-linecap="round" stroke-linejoin="round"/>
</svg>
