<svg width="20" height="21" viewBox="0 0 20 21" fill="none" xmlns="http://www.w3.org/2000/svg">
<path d="M7.9165 11.9583C7.9165 12.7666 8.54152 13.4166 9.30818 13.4166H10.8748C11.5415 13.4166 12.0832 12.8499 12.0832 12.1416C12.0832 11.3833 11.7498 11.1083 11.2582 10.9333L8.74984 10.0583C8.25817 9.88328 7.92485 9.61662 7.92485 8.84995C7.92485 8.14995 8.4665 7.57495 9.13316 7.57495H10.6998C11.4665 7.57495 12.0915 8.22495 12.0915 9.03328" stroke="#F44363" stroke-width="1.5" stroke-linecap="round" stroke-linejoin="round"/>
<path d="M10 6.75V14.25" stroke="#F44363" stroke-width="1.5" stroke-linecap="round" stroke-linejoin="round"/>
<path d="M18.3332 10.5C18.3332 15.1 14.5998 18.8333 9.99984 18.8333C5.39984 18.8333 1.6665 15.1 1.6665 10.5C1.6665 5.89996 5.39984 2.16663 9.99984 2.16663" stroke="#F44363" stroke-width="1.5" stroke-linecap="round" stroke-linejoin="round"/>
<path d="M14.1665 3V6.33333H17.4998" stroke="#F44363" stroke-width="1.5" stroke-linecap="round" stroke-linejoin="round"/>
<path d="M18.3332 2.16663L14.1665 6.33329" stroke="#F44363" stroke-width="1.5" stroke-linecap="round" stroke-linejoin="round"/>
</svg>
