<svg width="20" height="21" viewBox="0 0 20 21" fill="none" xmlns="http://www.w3.org/2000/svg">
<path d="M7.9165 11.9575C7.9165 12.7659 8.54152 13.4159 9.30818 13.4159H10.8748C11.5415 13.4159 12.0832 12.8492 12.0832 12.1409C12.0832 11.3825 11.7498 11.1076 11.2582 10.9326L8.74984 10.0575C8.25817 9.88255 7.92485 9.61588 7.92485 8.84922C7.92485 8.14922 8.4665 7.57422 9.13316 7.57422H10.6998C11.4665 7.57422 12.0915 8.22422 12.0915 9.03255" stroke="#434242" stroke-opacity="0.8" stroke-width="1.5" stroke-linecap="round" stroke-linejoin="round"/>
<path d="M10 6.75V14.25" stroke="#434242" stroke-opacity="0.8" stroke-width="1.5" stroke-linecap="round" stroke-linejoin="round"/>
<path d="M18.3332 10.4993C18.3332 15.0993 14.5998 18.8327 9.99984 18.8327C5.39984 18.8327 1.6665 15.0993 1.6665 10.4993C1.6665 5.89935 5.39984 2.16602 9.99984 2.16602" stroke="#434242" stroke-opacity="0.8" stroke-width="1.5" stroke-linecap="round" stroke-linejoin="round"/>
<path d="M14.1665 3V6.33333H17.4998" stroke="#434242" stroke-opacity="0.8" stroke-width="1.5" stroke-linecap="round" stroke-linejoin="round"/>
<path d="M18.3332 2.16602L14.1665 6.33268" stroke="#434242" stroke-opacity="0.8" stroke-width="1.5" stroke-linecap="round" stroke-linejoin="round"/>
</svg>
