<svg width="20" height="20" viewBox="0 0 20 20" fill="none" xmlns="http://www.w3.org/2000/svg">
<path d="M11.0417 10.0003C11.617 10.0003 12.0833 9.53396 12.0833 8.95866C12.0833 8.38336 11.617 7.91699 11.0417 7.91699C10.4664 7.91699 10 8.38336 10 8.95866C10 9.53396 10.4664 10.0003 11.0417 10.0003Z" fill="#00882E"/>
<path d="M13.4915 1.66699H6.50817C3.47484 1.66699 1.6665 3.47533 1.6665 6.50866V13.4837C1.6665 16.5253 3.47484 18.3337 6.50817 18.3337H13.4832C16.5165 18.3337 18.3248 16.5253 18.3248 13.492V6.50866C18.3332 3.47533 16.5248 1.66699 13.4915 1.66699ZM13.2415 11.2253C12.3832 12.0753 11.1582 12.342 10.0748 12.0003L9.1915 12.8753C9.1165 12.9503 8.98317 12.9503 8.89984 12.8753L8.0915 12.067C7.97484 11.9503 7.77484 11.9503 7.64984 12.067C7.52484 12.1837 7.53317 12.3837 7.64984 12.5087L8.45817 13.317C8.5415 13.4003 8.5415 13.5337 8.45817 13.6087L8.1165 13.9503C7.97484 14.1003 7.69984 14.192 7.49984 14.167L6.5915 14.042C6.2915 14.0003 6.0165 13.717 5.9665 13.417L5.8415 12.5087C5.80817 12.3087 5.90817 12.0337 6.0415 11.892L7.99984 9.93366C7.6665 8.85033 7.92484 7.62533 8.78317 6.76699C10.0082 5.54199 12.0082 5.54199 13.2415 6.76699C14.4748 7.99199 14.4748 9.99199 13.2415 11.2253Z" fill="#00882E"/>
</svg>
