<svg width="120" height="121" viewBox="0 0 120 121" fill="none" xmlns="http://www.w3.org/2000/svg">
<path d="M60 120.38C93.1371 120.38 120 93.5167 120 60.3796C120 27.2426 93.1371 0.379639 60 0.379639C26.8629 0.379639 0 27.2426 0 60.3796C0 93.5167 26.8629 120.38 60 120.38Z" fill="#E8F8F4"/>
<path d="M96 120.379H24V42.779C27.3936 42.7752 30.6471 41.4254 33.0468 39.0258C35.4464 36.6261 36.7962 33.3726 36.8 29.979H83.2C83.1964 31.6601 83.5262 33.3252 84.1704 34.878C84.8146 36.4308 85.7603 37.8405 86.9528 39.0254C88.1377 40.2183 89.5474 41.1643 91.1004 41.8086C92.6533 42.4529 94.3187 42.7827 96 42.779V120.379Z" fill="white"/>
<path d="M59.9998 81.9787C70.6037 81.9787 79.1998 73.3826 79.1998 62.7787C79.1998 52.1749 70.6037 43.5787 59.9998 43.5787C49.3959 43.5787 40.7998 52.1749 40.7998 62.7787C40.7998 73.3826 49.3959 81.9787 59.9998 81.9787Z" fill="#00882E"/>
<path d="M66.7882 71.8303L60 65.0421L53.2118 71.8303L50.949 69.5676L57.7373 62.7794L50.949 55.9912L53.2118 53.7284L60 60.5166L66.7882 53.7284L69.051 55.9912L62.2627 62.7794L69.051 69.5676L66.7882 71.8303Z" fill="white"/>
<path d="M70.4002 86.7799H49.6002C48.2747 86.7799 47.2002 87.8544 47.2002 89.1799C47.2002 90.5054 48.2747 91.5799 49.6002 91.5799H70.4002C71.7257 91.5799 72.8002 90.5054 72.8002 89.1799C72.8002 87.8544 71.7257 86.7799 70.4002 86.7799Z" fill="#DFEAFB"/>
<path d="M77.6 96.3793H42.4C41.0745 96.3793 40 97.4538 40 98.7793C40 100.105 41.0745 101.179 42.4 101.179H77.6C78.9255 101.179 80 100.105 80 98.7793C80 97.4538 78.9255 96.3793 77.6 96.3793Z" fill="#DFEAFB"/>
</svg>
