<svg width="20" height="21" viewBox="0 0 20 21" fill="none" xmlns="http://www.w3.org/2000/svg">
<path d="M15.8332 7.99935C15.8332 9.20768 15.4748 10.316 14.8582 11.241C13.9582 12.5744 12.5332 13.516 10.8748 13.7577C10.5915 13.8077 10.2998 13.8327 9.99984 13.8327C9.69984 13.8327 9.40817 13.8077 9.12484 13.7577C7.4665 13.516 6.0415 12.5744 5.1415 11.241C4.52484 10.316 4.1665 9.20768 4.1665 7.99935C4.1665 4.77435 6.77484 2.16602 9.99984 2.16602C13.2248 2.16602 15.8332 4.77435 15.8332 7.99935Z" stroke="#F44363" stroke-width="1.5" stroke-linecap="round" stroke-linejoin="round"/>
<path d="M17.7082 15.8917L16.3332 16.2167C16.0249 16.2917 15.7832 16.525 15.7166 16.8333L15.4249 18.0583C15.2666 18.725 14.4166 18.925 13.9749 18.4L9.9999 13.8333L6.0249 18.4083C5.58324 18.9333 4.73324 18.7333 4.5749 18.0667L4.28324 16.8417C4.20824 16.5333 3.96657 16.2917 3.66657 16.225L2.29157 15.9C1.65824 15.75 1.43324 14.9583 1.89157 14.5L5.14157 11.25C6.04157 12.5833 7.46657 13.525 9.1249 13.7667C9.40824 13.8167 9.6999 13.8417 9.9999 13.8417C10.2999 13.8417 10.5916 13.8167 10.8749 13.7667C12.5332 13.525 13.9582 12.5833 14.8582 11.25L18.1082 14.5C18.5666 14.95 18.3416 15.7417 17.7082 15.8917Z" stroke="#F44363" stroke-width="1.5" stroke-linecap="round" stroke-linejoin="round"/>
<path d="M10.4831 5.48398L10.9748 6.46731C11.0415 6.60064 11.2165 6.73398 11.3748 6.75898L12.2665 6.90898C12.8331 7.00064 12.9665 7.41732 12.5581 7.82565L11.8665 8.5173C11.7498 8.63397 11.6831 8.85898 11.7248 9.02565L11.9248 9.88398C12.0831 10.559 11.7248 10.8256 11.1248 10.4673L10.2915 9.97564C10.1415 9.88397 9.89148 9.88397 9.74148 9.97564L8.90815 10.4673C8.30815 10.8173 7.94981 10.559 8.10815 9.88398L8.30815 9.02565C8.34148 8.86732 8.28315 8.63397 8.16648 8.5173L7.47481 7.82565C7.06648 7.41732 7.19981 7.00898 7.76648 6.90898L8.65815 6.75898C8.80815 6.73398 8.98315 6.60064 9.04981 6.46731L9.54148 5.48398C9.78315 4.95065 10.2165 4.95065 10.4831 5.48398Z" stroke="#F44363" stroke-width="1.5" stroke-linecap="round" stroke-linejoin="round"/>
</svg>
