<svg width="20" height="20" viewBox="0 0 20 20" fill="none" xmlns="http://www.w3.org/2000/svg">
<path d="M13.1503 1.66699H6.85033C3.70033 1.66699 2.91699 2.50866 2.91699 5.86699V15.2503C2.91699 17.467 4.13366 17.992 5.60866 16.4087L5.61699 16.4003C6.30033 15.6753 7.34199 15.7337 7.93366 16.5253L8.77533 17.6503C9.45033 18.542 10.542 18.542 11.217 17.6503L12.0587 16.5253C12.6587 15.7253 13.7003 15.667 14.3837 16.4003C15.867 17.9837 17.0753 17.4587 17.0753 15.242V5.86699C17.0837 2.50866 16.3003 1.66699 13.1503 1.66699ZM12.5003 9.79199H7.50033C7.15866 9.79199 6.87533 9.50866 6.87533 9.16699C6.87533 8.82533 7.15866 8.54199 7.50033 8.54199H12.5003C12.842 8.54199 13.1253 8.82533 13.1253 9.16699C13.1253 9.50866 12.842 9.79199 12.5003 9.79199ZM13.3337 6.45866H6.66699C6.32533 6.45866 6.04199 6.17533 6.04199 5.83366C6.04199 5.49199 6.32533 5.20866 6.66699 5.20866H13.3337C13.6753 5.20866 13.9587 5.49199 13.9587 5.83366C13.9587 6.17533 13.6753 6.45866 13.3337 6.45866Z" fill="#001B0D"/>
</svg>
