<svg width="41" height="40" viewBox="0 0 41 40" fill="none" xmlns="http://www.w3.org/2000/svg">
<rect x="0.333496" width="40" height="40" rx="20" fill="#6053FF"/>
<path d="M26.3335 10H14.3335C12.6735 10 11.3335 11.33 11.3335 12.97V23.88C11.3335 25.52 12.6735 26.86 14.3335 26.86H15.0935C15.8835 26.86 16.6535 27.17 17.2135 27.73L18.9235 29.42C19.7035 30.19 20.9635 30.19 21.7435 29.42L23.4535 27.73C24.0135 27.17 24.7835 26.86 25.5735 26.86H26.3335C27.9935 26.86 29.3335 25.52 29.3335 23.88V12.97C29.3335 11.33 27.9935 10 26.3335 10ZM20.3335 13.55C21.4135 13.55 22.2835 14.43 22.2835 15.5C22.2835 16.56 21.4435 17.41 20.4035 17.45C20.3635 17.45 20.3035 17.45 20.2535 17.45C19.2035 17.41 18.3735 16.56 18.3735 15.5C18.3835 14.43 19.2535 13.55 20.3335 13.55ZM23.0835 22.69C21.5735 23.7 19.0935 23.7 17.5835 22.69C16.2535 21.81 16.2535 20.35 17.5835 19.46C19.1035 18.45 21.5835 18.45 23.0835 19.46C24.4135 20.35 24.4135 21.8 23.0835 22.69Z" fill="white"/>
</svg>
