<svg width="21" height="21" viewBox="0 0 21 21" fill="none" xmlns="http://www.w3.org/2000/svg">
<path fill-rule="evenodd" clip-rule="evenodd" d="M10.2828 2.16699C14.7578 2.16699 18.3978 5.80699 18.3978 10.282C18.3978 12.3933 17.5876 14.3189 16.2617 15.7641L18.8707 18.3676C19.1148 18.6117 19.1157 19.0067 18.8715 19.2509C18.7498 19.3742 18.589 19.4351 18.429 19.4351C18.2698 19.4351 18.1098 19.3742 17.9873 19.2526L15.3469 16.6195C13.9579 17.7319 12.1967 18.3978 10.2828 18.3978C5.80783 18.3978 2.16699 14.757 2.16699 10.282C2.16699 5.80699 5.80783 2.16699 10.2828 2.16699ZM10.2828 3.41699C6.49699 3.41699 3.41699 6.49616 3.41699 10.282C3.41699 14.0678 6.49699 17.1478 10.2828 17.1478C14.0678 17.1478 17.1478 14.0678 17.1478 10.282C17.1478 6.49616 14.0678 3.41699 10.2828 3.41699Z" fill="#8F8F8F"/>
</svg>
