<svg width="20" height="20" viewBox="0 0 20 20" fill="none" xmlns="http://www.w3.org/2000/svg">
<path opacity="0.4" d="M18.3333 13.7501V16.2501C18.3333 17.5001 17.5 18.3334 16.25 18.3334H5C5.34167 18.3334 5.69167 18.2834 6.01667 18.1751C6.10833 18.1417 6.19999 18.1084 6.29166 18.0667C6.58332 17.9501 6.86667 17.7834 7.11667 17.5667C7.19167 17.5084 7.27501 17.4334 7.35001 17.3584L7.38332 17.3251L13.05 11.6667H16.25C17.5 11.6667 18.3333 12.5001 18.3333 13.7501Z" fill="#001B0D"/>
<path opacity="0.6" d="M15.3083 9.40822L13.05 11.6666L7.3833 17.3249C7.96663 16.7249 8.33331 15.8999 8.33331 14.9999V6.94989L10.5916 4.69155C11.475 3.80822 12.6583 3.80822 13.5416 4.69155L15.3083 6.45822C16.1916 7.34155 16.1916 8.52489 15.3083 9.40822Z" fill="#001B0D"/>
<path d="M6.24984 1.66675H3.74984C2.49984 1.66675 1.6665 2.50008 1.6665 3.75008V15.0001C1.6665 15.2251 1.69149 15.4501 1.73316 15.6668C1.75816 15.7751 1.78316 15.8834 1.8165 15.9917C1.85816 16.1167 1.89983 16.2417 1.94983 16.3584C1.95817 16.3667 1.95818 16.3751 1.95818 16.3751C1.96651 16.3751 1.96651 16.3751 1.95818 16.3834C2.07484 16.6168 2.20817 16.8417 2.3665 17.0501C2.45817 17.1584 2.54985 17.2584 2.64152 17.3584C2.73318 17.4584 2.83317 17.5417 2.9415 17.6251L2.94984 17.6334C3.15818 17.7918 3.38317 17.9251 3.6165 18.0417C3.62483 18.0334 3.62484 18.0334 3.62484 18.0417C3.74984 18.1001 3.87484 18.1417 4.00817 18.1834C4.1165 18.2167 4.22485 18.2417 4.33318 18.2667C4.54985 18.3084 4.77484 18.3334 4.99984 18.3334C5.3415 18.3334 5.6915 18.2834 6.0165 18.1751C6.10817 18.1417 6.19983 18.1084 6.29149 18.0667C6.58316 17.9501 6.86651 17.7834 7.11651 17.5667C7.19151 17.5084 7.27484 17.4334 7.34984 17.3584L7.38316 17.3251C7.96649 16.7251 8.33317 15.9001 8.33317 15.0001V3.75008C8.33317 2.50008 7.49984 1.66675 6.24984 1.66675ZM4.99984 16.2501C4.30817 16.2501 3.74984 15.6917 3.74984 15.0001C3.74984 14.3084 4.30817 13.7501 4.99984 13.7501C5.6915 13.7501 6.24984 14.3084 6.24984 15.0001C6.24984 15.6917 5.6915 16.2501 4.99984 16.2501Z" fill="#001B0D"/>
</svg>
