<svg width="20" height="20" viewBox="0 0 20 20" fill="none" xmlns="http://www.w3.org/2000/svg">
<path d="M15 3.33366H13.125V2.29199C13.125 1.95033 12.8417 1.66699 12.5 1.66699C12.1583 1.66699 11.875 1.95033 11.875 2.29199V17.7087C11.875 18.0503 12.1583 18.3337 12.5 18.3337C12.8417 18.3337 13.125 18.0503 13.125 17.7087V16.667H15C16.8417 16.667 18.3333 15.1753 18.3333 13.3337V6.66699C18.3333 4.82533 16.8417 3.33366 15 3.33366Z" fill="#00882E"/>
<path d="M5.41683 3.33301C3.57516 3.33301 2.0835 4.82467 2.0835 6.66634V13.333C2.0835 15.1747 3.57516 16.6663 5.41683 16.6663H9.5835C10.0418 16.6663 10.4168 16.2913 10.4168 15.833V4.16634C10.4168 3.70801 10.0418 3.33301 9.5835 3.33301H5.41683ZM5.5585 10.3163C5.51683 10.4163 5.4585 10.508 5.3835 10.5913C5.30016 10.6663 5.2085 10.7247 5.1085 10.7663C5.0085 10.808 4.90016 10.833 4.79183 10.833C4.6835 10.833 4.57516 10.808 4.47516 10.7663C4.37516 10.7247 4.2835 10.6663 4.20016 10.5913C4.12516 10.508 4.06683 10.4163 4.01683 10.3163C3.97516 10.2163 3.9585 10.108 3.9585 9.99967C3.9585 9.78301 4.05016 9.56634 4.20016 9.40801C4.24183 9.37467 4.2835 9.34134 4.32516 9.30801C4.37516 9.27467 4.42516 9.24967 4.47516 9.23301C4.52516 9.20801 4.57516 9.19134 4.62516 9.18301C4.9085 9.12467 5.19183 9.21634 5.3835 9.40801C5.5335 9.56634 5.62516 9.78301 5.62516 9.99967C5.62516 10.108 5.60016 10.2163 5.5585 10.3163ZM8.47516 10.3163C8.4335 10.4163 8.37516 10.508 8.30016 10.5913C8.21683 10.6663 8.12516 10.7247 8.02516 10.7663C7.92516 10.808 7.81683 10.833 7.7085 10.833C7.60016 10.833 7.49183 10.808 7.39183 10.7663C7.29183 10.7247 7.20016 10.6663 7.11683 10.5913C6.9585 10.433 6.87516 10.2247 6.87516 9.99967C6.87516 9.89134 6.90016 9.78301 6.94183 9.68301C6.9835 9.57467 7.04183 9.49134 7.11683 9.40801C7.42516 9.09967 7.9835 9.09967 8.30016 9.40801C8.45016 9.56634 8.54183 9.78301 8.54183 9.99967C8.54183 10.108 8.51683 10.2163 8.47516 10.3163Z" fill="#00882E"/>
</svg>
